<svg xmlns="http://www.w3.org/2000/svg" viewBox="0 0 120 120">
  <path d="M66 12 C 74 34, 92 44, 92 68 C 92 90, 76 106, 58 106 C 40 106, 26 92, 26 72
           C 26 56, 36 48, 42 40 C 46 52, 54 54, 54 54 C 50 38, 56 24, 66 12 Z"
        fill="#F5581E"/>
  <path d="M62 44 C 70 58, 74 62, 74 76 C 74 90, 66 98, 56 98 C 46 98, 40 90, 40 78
           C 40 68, 46 62, 50 56 C 52 64, 58 64, 58 64 C 56 56, 58 50, 62 44 Z"
        fill="#FFB020"/>
  <path d="M58 68 C 63 76, 64 80, 64 86 C 64 93, 60 97, 55 97 C 50 97, 47 92, 47 86
           C 47 79, 52 74, 58 68 Z" fill="#FFE45C"/>
</svg>
